<svg width="30" height="19" viewBox="0 0 30 19" fill="none" xmlns="http://www.w3.org/2000/svg">
<path d="M27.083 0.960065H19.4841V3.07335H27.1129L27.083 0.960065ZM25.4793 15.4982C24.9028 15.8802 24.2221 16.0739 23.5309 16.0528C23.0733 16.1005 22.6109 16.0532 22.1724 15.914C21.734 15.7747 21.3291 15.5464 20.9829 15.2434C20.343 14.5178 20.0098 13.5721 20.0537 12.6056H29.9756C30.0471 11.5992 29.9612 10.5879 29.7208 9.60803C29.4883 8.67582 29.0815 7.79604 28.5218 7.01514C27.9584 6.25766 27.2308 5.63763 26.3935 5.20161C25.4619 4.7423 24.4345 4.51112 23.396 4.52716C22.4192 4.52001 21.451 4.70857 20.5483 5.08171C19.7217 5.43017 18.9727 5.93966 18.3451 6.58049C17.7192 7.23413 17.2345 8.0096 16.9212 8.85864C16.5851 9.77522 16.4175 10.7451 16.4266 11.7213C16.4112 12.7114 16.5737 13.6962 16.9062 14.6289C17.1887 15.4735 17.6372 16.2532 18.2252 16.9221C18.8335 17.5788 19.5812 18.0909 20.4134 18.4209C21.3413 18.7744 22.3282 18.9474 23.321 18.9304C24.714 18.9739 26.0893 18.6092 27.2778 17.8813C28.4782 17.0283 29.3424 15.7823 29.7208 14.3592H26.4085C26.2312 14.83 25.9049 15.23 25.4793 15.4982ZM20.3384 9.32326C20.4551 8.94959 20.6487 8.60449 20.9069 8.31021C21.165 8.01593 21.4819 7.77899 21.8372 7.61465C22.3078 7.40285 22.8202 7.30037 23.336 7.31489C23.7086 7.28307 24.0837 7.33222 24.4356 7.45899C24.7874 7.58575 25.1077 7.78713 25.3744 8.0493C25.8836 8.67269 26.2104 9.42486 26.3186 10.2225H20.0986C20.1229 9.91795 20.1781 9.61664 20.2635 9.32326H20.3384ZM12.4099 8.60384C13.1727 8.2862 13.8356 7.76836 14.3283 7.10506C14.7813 6.40064 15.0063 5.57381 14.9728 4.73699C15.0022 3.97387 14.8534 3.2144 14.5382 2.5188C14.2734 1.91616 13.8483 1.39775 13.3092 1.02002C12.7376 0.627295 12.0886 0.361547 11.4057 0.24065C10.5976 0.0711584 9.77335 -0.00925635 8.94772 0.000845846H0V18.8555H9.14256C9.97691 18.8561 10.8079 18.7503 11.6155 18.5408C12.381 18.3427 13.1063 18.0131 13.7588 17.5666C14.3909 17.1285 14.9056 16.5417 15.2576 15.8579C15.6471 15.0932 15.8378 14.2428 15.8121 13.385C15.8405 12.3219 15.5424 11.2757 14.9578 10.3874C14.3292 9.49401 13.3969 8.86001 12.335 8.60384H12.4099ZM4.15162 3.22322H8.03346C8.39009 3.22278 8.7461 3.25287 9.0976 3.31315C9.42126 3.36111 9.73208 3.47322 10.0119 3.64288C10.2822 3.79578 10.5012 4.02523 10.6413 4.30234C10.8149 4.63465 10.8977 5.00692 10.8811 5.38147C10.9091 5.70406 10.8597 6.02867 10.7372 6.3284C10.6147 6.62813 10.4226 6.89437 10.1767 7.10506C9.64033 7.47381 8.9985 7.65794 8.34821 7.62964H4.15162V3.22322ZM11.4057 14.3741C11.2517 14.6796 11.0189 14.9383 10.7313 15.1235C10.432 15.3097 10.1022 15.4416 9.75706 15.5132C9.37346 15.5991 8.98106 15.6393 8.58801 15.6331H4.09167V10.4623H8.58801C9.35961 10.4285 10.1216 10.644 10.7612 11.0768C11.0502 11.3362 11.2741 11.6599 11.4147 12.0218C11.5553 12.3838 11.6087 12.7737 11.5706 13.1601C11.6111 13.5721 11.5546 13.9879 11.4057 14.3741V14.3741Z" fill="white"/>
</svg>
