<svg width="30" height="30" viewBox="0 0 30 30" fill="none" xmlns="http://www.w3.org/2000/svg">
<path d="M14.9999 0C11.4382 0.000146549 7.99268 1.25781 5.27995 3.54795C2.56722 5.83809 0.764287 9.01126 0.193739 12.4997C-0.376808 15.9881 0.322265 19.5642 2.16587 22.588C4.00948 25.6118 6.87732 27.886 10.2562 29.0038C11.0062 29.134 11.2875 28.6875 11.2875 28.2968C11.2875 27.9433 11.2687 26.7713 11.2687 25.5248C7.49999 26.2132 6.52499 24.6133 6.225 23.7761C5.89211 22.9618 5.36442 22.2403 4.68751 21.6738C4.16251 21.3947 3.41252 20.7064 4.66874 20.6878C5.14842 20.7394 5.60848 20.905 6.00994 21.1706C6.41141 21.4361 6.74244 21.7938 6.97499 22.2133C7.18015 22.579 7.45601 22.9009 7.78677 23.1606C8.11753 23.4203 8.49669 23.6127 8.90253 23.7268C9.30836 23.8408 9.73289 23.8743 10.1518 23.8253C10.5707 23.7763 10.9757 23.6457 11.3437 23.4411C11.4086 22.6845 11.7485 21.9771 12.3 21.4506C8.96248 21.0785 5.475 19.7947 5.475 14.1019C5.45392 12.6228 6.00403 11.1916 7.01249 10.1021C6.55392 8.81648 6.60757 7.40564 7.16249 6.158C7.16249 6.158 8.41869 5.7673 11.2875 7.68354C13.7419 7.01375 16.333 7.01375 18.7874 7.68354C21.6561 5.74871 22.9124 6.158 22.9124 6.158C23.4674 7.40562 23.521 8.81649 23.0624 10.1021C24.0739 11.1898 24.6245 12.6222 24.5999 14.1019C24.5999 19.8134 21.0936 21.0785 17.7562 21.4506C18.1141 21.8106 18.3898 22.2428 18.5645 22.7179C18.7392 23.193 18.8089 23.6998 18.7687 24.204C18.7687 26.1946 18.7499 27.7945 18.7499 28.2969C18.7499 28.6876 19.0311 29.1527 19.7811 29.0038C23.1541 27.877 26.0137 25.5974 27.8495 22.572C29.6852 19.5467 30.3777 15.9725 29.8031 12.4874C29.2286 9.00236 27.4246 5.83331 24.7131 3.54596C22.0015 1.2586 18.559 0.00183795 14.9999 0V0Z" fill="#F4F3EE"/>
</svg>
